<?xml version="1.0" encoding="utf-8"?>
<!-- Generator: Adobe Illustrator 19.2.1, SVG Export Plug-In . SVG Version: 6.00 Build 0)  -->
<svg version="1.1" id="layer" xmlns="http://www.w3.org/2000/svg" xmlns:xlink="http://www.w3.org/1999/xlink" x="0px" y="0px"
	 viewBox="0 0 652 652" style="enable-background:new 0 0 652 652;" xml:space="preserve">
<style type="text/css">
	.st0{fill:#ffffff;}
	.st1{fill:#37A539;}
</style>
<path class="st0" d="M277.2,287.6c-0.5-0.6-0.5-2,0-2.5l43.9-57.4c1.9-2.3,1.3-4.2,1-4.9c-0.3-0.7-1.4-2.5-4.4-2.5h-32.9
	c-2.9,0-6.4,1.7-8.2,4c0,0-26.2,34.1-34,44.4v-42c0-3.6-2.9-6.5-6.4-6.5h-25.9c-3.6,0-6.5,2.9-6.5,6.5v121.6c0,3.6,2.9,6.5,6.5,6.5
	h25.9c3.6,0,6.4-2.9,6.4-6.5v-44.6c8.2,10.5,35.9,47.3,35.9,47.3c1.7,2.3,5.6,3.9,8.6,3.9h32.4c2.9,0,4-1.7,4.4-2.5
	c0.3-0.7,1-2.7-1-4.9L277.2,287.6L277.2,287.6z"/>
<path class="st1" d="M20.3,220.2h133.8v134.6H20.3V220.2z"/>
<path class="st0" d="M552.3,220.2h-41.5c-3.6,0-6.5,2.9-6.5,6.5v20.9c0,3.6,2.9,6.5,6.5,6.5h35.3c20.9,0,33.9,12.8,33.9,33.4
	c0,20.9-12.8,33.4-34.3,33.4h-50.3c-0.7,0-1.5-0.7-1.6-1.4l-15.6-93.3c-0.5-3.3-3.6-6-7-6l-25.4,0.1c-3.2,0-6.5,2.1-7.7,5.1
	c0,0-19,47.1-23.9,59.4c-4.7-12.4-23.9-59.2-23.9-59.2c-1.1-3-4.4-5.3-7.6-5.2l-23.5,0.1c-3.4-0.2-6.7,2.5-7.5,6l-20.5,121.7
	c-0.1,1.6,0.3,3.3,1.4,4.7c1.1,1.3,2.8,2.1,4.5,2.1h25.8c3.4,0,6.6-3.3,7.1-6.7c0,0,6.4-44.3,8.7-60.5c6.3,15.9,25,61.9,25,61.9
	c1.2,3,4.4,5.2,7.7,5.2h5.8c3.2,0,6.5-2.2,7.7-5.2c0,0,18.7-46.2,25.3-62c2.1,16.3,7.7,61.1,7.7,61.1c0.4,3.4,3.5,6.1,6.9,6.1h87.4
	c37.5,0,68-30.2,68-67.3S589.8,220.2,552.3,220.2"/>
<g>
	<path class="st0" d="M355,413.6h-2.3c-0.3,0-0.6-0.2-0.6-0.6l-2.5-8.9h-10.1L337,413c-0.1,0.3-0.4,0.6-0.7,0.6h-2.3
		c-0.4,0-0.6-0.2-0.6-0.6v-0.2l7.1-25.2c0.6-2.4,2.5-2.9,4-2.9c1.4,0,3.3,0.6,3.9,2.9l7.1,25.3v0.2
		C355.7,413.3,355.4,413.6,355,413.6L355,413.6z M345.3,388.3c-0.1-0.4-0.3-0.7-0.7-0.7c-0.4,0-0.6,0.2-0.8,0.7l-3.6,12.8h8.6
		L345.3,388.3z M374.9,413.6h-1.8c-0.4,0-0.8-0.3-0.8-0.8V400c0-3.9-1.3-5.2-4.3-5.2c-1.7,0-3.5,0.6-5.2,1.5v16.3
		c0,0.4-0.3,0.8-0.8,0.8h-1.9c-0.4,0-0.7-0.3-0.7-0.8v-19.7c0-0.4,0.3-0.8,0.7-0.8h1.9c0.4,0,0.7,0.3,0.7,0.8v0.7
		c2.1-1.2,3.9-1.7,6.2-1.7c4.7,0,6.7,2.9,6.7,8.1v12.8C375.7,413.2,375.4,413.6,374.9,413.6z M410.1,413.6h-2.4
		c-0.6,0-1-0.2-1.3-0.6l-12-22.8c0-0.1-0.1-0.1-0.1-0.1v22.8c0,0.4-0.3,0.7-0.7,0.7h-2c-0.4,0-0.7-0.1-0.7-0.5v-27.3
		c0-0.6,0.5-1.1,1.1-1.1h2.1c1.1,0,1.3,0.2,1.6,0.8l11.9,22.7l0.1,0.1v-22.8c0-0.4,0.3-0.7,0.7-0.7h2.1c0.4,0,0.7,0.3,0.7,0.7v27
		C411.3,413.1,410.8,413.6,410.1,413.6L410.1,413.6z M433.1,413.6c-1.5,0.2-5.3,0.2-7.5,0.2c-5.4,0-8.2-2.1-8.2-7.2v-14.9
		c0-5.2,2.9-7.2,8.2-7.2c2.3,0,5.9,0.1,7.5,0.2c0.2,0.1,0.4,0.3,0.4,0.6v1.9c0,0.2-0.2,0.5-0.4,0.5h-7.5c-4.1,0-4.8,1.1-4.8,4v5.4
		h11.9c0.4,0,0.8,0.3,0.8,0.8v1.5c0,0.4-0.3,0.8-0.8,0.8h-11.9v6.5c0,2.9,0.6,4,4.8,4h7.5c0.2,0,0.4,0.2,0.4,0.5v2
		C433.5,413.3,433.4,413.6,433.1,413.6z M454.7,413.3c-1.7,0.3-3.2,0.5-6.4,0.5c-4.8,0-10.2-2.5-10.2-12v-5.4c0-9.5,5.5-12,10.2-12
		c2.5,0,4.8,0.3,6.5,0.6c0.3,0,0.6,0.2,0.6,0.5v2c0,0.2-0.1,0.4-0.5,0.4h-0.1c-1.4-0.1-4.3-0.3-6.5-0.3c-3.8,0-6.7,2.2-6.7,8.8v5.4
		c0,6.5,2.9,8.8,6.7,8.8c2.2,0,5-0.2,6.4-0.3h0.2c0.4,0,0.6,0.2,0.6,0.6v1.6C455.4,413,455.1,413.2,454.7,413.3L454.7,413.3z
		 M485.4,413.3c-1.7,0.3-3.2,0.5-6.4,0.5c-4.8,0-10.2-2.5-10.2-12v-5.4c0-9.5,5.5-12,10.2-12c2.5,0,4.8,0.3,6.5,0.6
		c0.3,0,0.6,0.2,0.6,0.5v2c0,0.2-0.1,0.4-0.5,0.4h-0.1c-1.4-0.1-4.3-0.3-6.5-0.3c-3.8,0-6.7,2.2-6.7,8.8v5.4c0,6.5,2.9,8.8,6.7,8.8
		c2.2,0,5-0.2,6.4-0.3h0.2c0.4,0,0.6,0.2,0.6,0.6v1.6C486.2,413,485.8,413.2,485.4,413.3L485.4,413.3z M497.7,413.9
		c-5.7,0-8.6-3.7-8.6-9.4v-2.9c0-5.7,2.9-9.4,8.6-9.4c5.7,0,8.6,3.7,8.6,9.4v2.9C506.3,410.1,503.4,413.9,497.7,413.9z M502.9,401.4
		c0-4-1.6-6.5-5.2-6.5c-3.6,0-5.2,2.5-5.2,6.5v2.9c0,4,1.6,6.5,5.2,6.5c3.6,0,5.2-2.5,5.2-6.5V401.4z M535.8,413.6H534
		c-0.4,0-0.8-0.3-0.8-0.8v-13.7c0-3.3-1.5-4.1-3.6-4.1c-1.4,0-3,0.5-4.5,1c0.2,0.9,0.3,1.8,0.3,3v13.8c0,0.4-0.2,0.8-0.7,0.8h-2.1
		c-0.4,0-0.6-0.3-0.6-0.8V399c0-3.4-1-4-3-4c-1.4,0-3.1,0.7-4.8,1.5v16.3c0,0.4-0.2,0.8-0.7,0.8h-2.1c-0.4,0-0.6-0.3-0.6-0.8V393
		c0-0.4,0.3-0.8,0.7-0.8h1.9c0.4,0,0.7,0.3,0.7,0.8v0.7c1.6-1,3.6-1.8,5.6-1.8c1.7,0,2.9,0.5,3.9,1.6c2.1-1,4.4-1.6,6.4-1.6
		c3.5,0,6.3,1.7,6.3,7.1v13.7C536.6,413.2,536.2,413.6,535.8,413.6L535.8,413.6z M549.8,413.9c-1.2,0-3-0.2-4.5-0.4v7.1
		c0,0.4-0.3,0.7-0.7,0.7h-2c-0.4,0-0.7-0.3-0.7-0.7v-26.7c0-0.5,0.1-0.7,0.8-0.9c2.1-0.5,4.8-0.9,7.1-0.9c5.8,0,8.5,3.7,8.5,9.6v2.8
		C558.3,410.5,555.5,413.9,549.8,413.9L549.8,413.9z M554.9,401.6c0-4-1.2-6.7-5.1-6.7c-1.7,0-3.5,0.2-4.5,0.4v15.4
		c1.3,0.2,3.3,0.4,4.5,0.4c3.8,0,5.1-2.5,5.1-6.7V401.6z M576.9,413.6h-1.7c-0.4,0-0.8-0.3-0.8-0.8v-0.9c-1.8,1.1-3.8,1.9-5.9,1.9
		c-3.3,0-6.3-1.4-6.3-6.3v-0.5c0-4.2,2.5-6.3,9.4-6.3h2.9v-1.6c0-3.3-1.1-4.4-4.1-4.4c-2.5,0-4.4,0.2-5.9,0.3h-0.2
		c-0.3,0-0.7-0.1-0.7-0.6v-1.3c0-0.4,0.2-0.6,0.8-0.7c1.6-0.2,3.4-0.5,6-0.5c5.4,0,7.5,2.7,7.5,7.3v13.6
		C577.7,413.2,577.3,413.6,576.9,413.6L576.9,413.6z M574.3,403.3h-2.9c-4.7,0-5.9,1-5.9,3.8v0.5c0,2.8,1.3,3.6,3.6,3.6
		c1.7,0,3.4-0.6,5.2-1.6V403.3L574.3,403.3z M598.5,413.6h-1.8c-0.4,0-0.8-0.3-0.8-0.8V400c0-3.9-1.3-5.2-4.3-5.2
		c-1.7,0-3.5,0.6-5.2,1.5v16.3c0,0.4-0.3,0.8-0.8,0.8h-1.9c-0.4,0-0.7-0.3-0.7-0.8v-19.7c0-0.4,0.3-0.8,0.7-0.8h1.9
		c0.4,0,0.7,0.3,0.7,0.8v0.7c2.1-1.2,3.9-1.7,6.2-1.7c4.7,0,6.7,2.9,6.7,8.1v12.8C599.3,413.2,599,413.6,598.5,413.6z M620.2,393.2
		l-6.4,22.4c-1.2,4.2-2.6,5.7-7.1,5.7c-1.1,0-2.5-0.2-3.3-0.3c-0.5-0.1-0.8-0.2-0.8-0.6v-1.4c0-0.4,0.3-0.6,0.7-0.6h0.1
		c0.9,0.1,2.6,0.2,3.5,0.2c2.2,0,3.2-0.6,3.8-3.3l0.4-1.6h-0.6c-1.2,0-2.1-0.2-2.9-2.7l-5.2-17.8c-0.1-0.1-0.1-0.2-0.1-0.2
		c0-0.4,0.2-0.6,0.7-0.6h2.1c0.3,0,0.6,0.3,0.6,0.6l4.6,16.8c0.2,0.8,0.5,0.9,0.7,0.9h0.6l4.8-17.8c0.1-0.3,0.4-0.6,0.7-0.6h2.1
		c0.4,0,0.6,0.2,0.6,0.6C620.3,393,620.3,393.1,620.2,393.2L620.2,393.2z"/>
</g>
</svg>
